# xmcd
#
# Track frame offsets:
#	150
#	31052
#	60555
#	94697
#	123894
#	152944
#
# Disc length: 2932 seconds
#
# Revision: 0
# Processed by: cddbd v1.5.2PL0 Copyright (c) Steve Scherf et al.
# Submitted via: audiograbber 1.83.01
#
DISCID=400b7206
DTITLE=Grateful Dead - 94-06-19 Autzen Stadium, Eugene OR
DYEAR=1900
DGENRE=
TTITLE0=Touch Of Grey
TTITLE1=Walkin' Blues
TTITLE2=Brown Eyed Women
TTITLE3=El Paso
TTITLE4=If The Shoe Fits
TTITLE5=Bird Song
EXTD=
EXTT0=
EXTT1=
EXTT2=
EXTT3=
EXTT4=
EXTT5=
PLAYORDER=
